<?xml version="1.0" standalone="no"?>
<svg xmlns="http://www.w3.org/2000/svg" xmlns:xlink="http://www.w3.org/1999/xlink" width="551pt" height="406pt" viewBox="0.00 0.00 551.00 406.00">
<g id="graph0" class="graph" transform="translate(75.83927961139264,331.9100424974123) scale(0.629960536514853)" data-name="">
<polygon fill="white" stroke="none" points="-4,4 -4,-402 547,-402 547,4 -4,4"/>
<g id="clust1" class="cluster" data-name="cluster_0">

<polygon fill="none" stroke="black" points="463,-8 463,-85 538,-85 538,-8 463,-8"/>
<text text-anchor="middle" x="500.5" y="-68.4" font-family="Times,serif" font-size="14.00">EqClass_0</text>
</g>
<g id="clust2" class="cluster" data-name="cluster_1">

<polygon fill="none" stroke="black" points="280,-93 280,-244 535,-244 535,-93 280,-93"/>
<text text-anchor="middle" x="407.5" y="-227.4" font-family="Times,serif" font-size="14.00">EqClass_1</text>
</g>
<g id="clust3" class="cluster" data-name="cluster_2">

<polygon fill="none" stroke="black" points="278,-252 278,-329 353,-329 353,-252 278,-252"/>
<text text-anchor="middle" x="315.5" y="-312.4" font-family="Times,serif" font-size="14.00">EqClass_2</text>
</g>
<g id="clust4" class="cluster" data-name="cluster_3">

<polygon fill="none" stroke="black" points="8,-259 8,-390 258,-390 258,-259 8,-259"/>
<text text-anchor="middle" x="133" y="-373.4" font-family="Times,serif" font-size="14.00">EqClass_3</text>
</g>
<!-- 5 -->
<g id="node1" class="node" pointer-events="visible" data-name="5">

<ellipse fill="none" stroke="black" cx="500" cy="-34" rx="27" ry="18"/>
<text text-anchor="middle" x="500" y="-29.8" font-family="Times,serif" font-size="14.00">5</text>
</g>
<!-- 2 -->
<g id="node2" class="node" pointer-events="visible" data-name="2">

<ellipse fill="none" stroke="black" cx="315" cy="-156" rx="27" ry="18"/>
<text text-anchor="middle" x="315" y="-151.8" font-family="Times,serif" font-size="14.00">2</text>
</g>
<!-- 2&#45;&gt;5 -->
<g id="edge7" class="edge" data-name="2-&gt;5">

<path fill="none" stroke="black" d="M329.26,-140.34C341.63,-126.41 361.11,-106.12 381,-92 407.47,-73.21 440.95,-57.4 465.48,-47.05"/>
<polygon fill="black" stroke="black" points="466.75,-50.31 474.66,-43.27 464.08,-43.84 466.75,-50.31"/>
</g>
<!-- 4 -->
<g id="node3" class="node" pointer-events="visible" data-name="4">

<ellipse fill="none" stroke="black" cx="408" cy="-119" rx="27" ry="18"/>
<text text-anchor="middle" x="408" y="-114.8" font-family="Times,serif" font-size="14.00">4</text>
</g>
<!-- 2&#45;&gt;4 -->
<g id="edge6" class="edge" data-name="2-&gt;4">

<path fill="none" stroke="black" d="M338.49,-146.85C349.21,-142.5 362.24,-137.2 374.05,-132.4"/>
<polygon fill="black" stroke="black" points="375.1,-135.75 383.05,-128.74 372.47,-129.26 375.1,-135.75"/>
</g>
<!-- 7 -->
<g id="node5" class="node" pointer-events="visible" data-name="7">

<ellipse fill="none" stroke="black" cx="408" cy="-193" rx="27" ry="18"/>
<text text-anchor="middle" x="408" y="-188.8" font-family="Times,serif" font-size="14.00">7</text>
</g>
<!-- 2&#45;&gt;7 -->
<g id="edge8" class="edge" data-name="2-&gt;7">

<path fill="none" stroke="black" d="M341.35,-160.18C352.86,-164.1 366.54,-169.6 378.42,-175.06"/>
<polygon fill="black" stroke="black" points="376.82,-178.18 387.35,-179.37 379.86,-171.87 376.82,-178.18"/>
</g>
<!-- 4&#45;&gt;5 -->
<g id="edge12" class="edge" data-name="4-&gt;5">

<path fill="none" stroke="black" d="M424.27,-104.58C438.36,-91.27 459.5,-71.31 475.7,-56.01"/>
<polygon fill="black" stroke="black" points="477.69,-58.94 482.56,-49.53 472.88,-53.85 477.69,-58.94"/>
</g>
<!-- 6 -->
<g id="node4" class="node" pointer-events="visible" data-name="6">

<ellipse fill="none" stroke="black" cx="500" cy="-156" rx="27" ry="18"/>
<text text-anchor="middle" x="500" y="-151.8" font-family="Times,serif" font-size="14.00">6</text>
</g>
<!-- 4&#45;&gt;6 -->
<g id="edge11" class="edge" data-name="4-&gt;6">

<path fill="none" stroke="black" d="M431.71,-128.34C442.05,-132.59 454.49,-137.7 465.84,-142.37"/>
<polygon fill="black" stroke="black" points="464.32,-145.53 474.9,-146.09 466.98,-139.05 464.32,-145.53"/>
</g>
<!-- 6&#45;&gt;2 -->
<g id="edge13" class="edge" data-name="6-&gt;2">

<path fill="none" stroke="black" d="M472.53,-156C441.25,-156 388.99,-156 353.54,-156"/>
<polygon fill="black" stroke="black" points="353.73,-152.5 343.73,-156 353.73,-159.5 353.73,-152.5"/>
</g>
<!-- 7&#45;&gt;2 -->
<g id="edge14" class="edge" data-name="7-&gt;2">

<path fill="none" stroke="black" d="M381.37,-188.72C369.93,-184.82 356.4,-179.37 344.62,-173.96"/>
<polygon fill="black" stroke="black" points="346.31,-170.88 335.78,-169.69 343.27,-177.19 346.31,-170.88"/>
</g>
<!-- 8 -->
<g id="node6" class="node" pointer-events="visible" data-name="8">

<ellipse fill="none" stroke="black" cx="315" cy="-278" rx="27" ry="18"/>
<text text-anchor="middle" x="315" y="-273.8" font-family="Times,serif" font-size="14.00">8</text>
</g>
<!-- 8&#45;&gt;7 -->
<g id="edge15" class="edge" data-name="8-&gt;7">

<path fill="none" stroke="black" d="M333.28,-264.65C339.62,-259.59 346.76,-253.67 353,-248 363.87,-238.11 375.36,-226.59 384.92,-216.65"/>
<polygon fill="black" stroke="black" points="387.37,-219.15 391.73,-209.5 382.3,-214.33 387.37,-219.15"/>
</g>
<!-- 0 -->
<g id="node7" class="node" pointer-events="visible" data-name="0">

<ellipse fill="none" stroke="black" cx="43" cy="-307" rx="27" ry="18"/>
<text text-anchor="middle" x="43" y="-302.8" font-family="Times,serif" font-size="14.00">0</text>
</g>
<!-- 1 -->
<g id="node8" class="node" pointer-events="visible" data-name="1">

<ellipse fill="none" stroke="black" cx="133" cy="-285" rx="27" ry="18"/>
<text text-anchor="middle" x="133" y="-280.8" font-family="Times,serif" font-size="14.00">1</text>
</g>
<!-- 0&#45;&gt;1 -->
<g id="edge1" class="edge" data-name="0-&gt;1">

<path fill="none" stroke="black" d="M68.51,-300.87C77.12,-298.72 86.97,-296.26 96.3,-293.92"/>
<polygon fill="black" stroke="black" points="96.99,-297.36 105.84,-291.54 95.29,-290.57 96.99,-297.36"/>
</g>
<!-- 1&#45;&gt;5 -->
<g id="edge4" class="edge" data-name="1-&gt;5">

<path fill="none" stroke="black" d="M141.92,-267.72C160.27,-229.61 209.4,-137.89 278,-89 333.39,-49.52 414.13,-38.27 461.14,-35.13"/>
<polygon fill="black" stroke="black" points="461.31,-38.62 471.1,-34.57 460.92,-31.64 461.31,-38.62"/>
</g>
<!-- 1&#45;&gt;8 -->
<g id="edge5" class="edge" data-name="1-&gt;8">

<path fill="none" stroke="black" d="M154.52,-273.52C166.27,-267.6 181.52,-261.02 196,-258 222.98,-252.38 230.85,-253.3 258,-258 265.72,-259.34 273.79,-261.64 281.32,-264.22"/>
<polygon fill="black" stroke="black" points="279.85,-267.41 290.44,-267.59 282.27,-260.84 279.85,-267.41"/>
</g>
<!-- 3 -->
<g id="node9" class="node" pointer-events="visible" data-name="3">

<ellipse fill="none" stroke="black" cx="223" cy="-339" rx="27" ry="18"/>
<text text-anchor="middle" x="223" y="-334.8" font-family="Times,serif" font-size="14.00">3</text>
</g>
<!-- 1&#45;&gt;3 -->
<g id="edge2" class="edge" data-name="1-&gt;3">

<path fill="none" stroke="black" d="M153.53,-296.98C165.15,-304.12 180.11,-313.3 193.08,-321.25"/>
<polygon fill="black" stroke="black" points="190.88,-324.01 201.23,-326.26 194.54,-318.04 190.88,-324.01"/>
</g>
<!-- 9 -->
<g id="node10" class="node" pointer-events="visible" data-name="9">

<ellipse fill="none" stroke="black" cx="223" cy="-285" rx="27" ry="18"/>
<text text-anchor="middle" x="223" y="-280.8" font-family="Times,serif" font-size="14.00">9</text>
</g>
<!-- 1&#45;&gt;9 -->
<g id="edge3" class="edge" data-name="1-&gt;9">

<path fill="none" stroke="black" d="M158.51,-278.88C167.02,-278.29 176.75,-278.12 186,-278.35"/>
<polygon fill="black" stroke="black" points="185.65,-281.84 195.8,-278.8 185.97,-274.85 185.65,-281.84"/>
</g>
<!-- 3&#45;&gt;6 -->
<g id="edge10" class="edge" data-name="3-&gt;6">

<path fill="none" stroke="black" d="M249.51,-343.64C276.69,-347.3 320.22,-349.4 353,-333 417.92,-300.53 464.39,-224.61 485.78,-183.54"/>
<polygon fill="black" stroke="black" points="488.83,-185.28 490.23,-174.77 482.59,-182.11 488.83,-185.28"/>
</g>
<!-- 3&#45;&gt;0 -->
<g id="edge9" class="edge" data-name="3-&gt;0">

<path fill="none" stroke="black" d="M196.54,-334.42C166.16,-328.96 115.14,-319.79 80.55,-313.57"/>
<polygon fill="black" stroke="black" points="81.45,-310.18 70.99,-311.85 80.22,-317.07 81.45,-310.18"/>
</g>
<!-- 9&#45;&gt;8 -->
<g id="edge17" class="edge" data-name="9-&gt;8">

<path fill="none" stroke="black" d="M250.03,-282.98C258.26,-282.34 267.53,-281.61 276.4,-280.92"/>
<polygon fill="black" stroke="black" points="276.51,-284.43 286.21,-280.16 275.96,-277.45 276.51,-284.43"/>
</g>
<!-- 9&#45;&gt;1 -->
<g id="edge16" class="edge" data-name="9-&gt;1">

<path fill="none" stroke="black" d="M197.31,-291.14C188.79,-291.71 179.05,-291.88 169.82,-291.65"/>
<polygon fill="black" stroke="black" points="170.18,-288.16 160.02,-291.19 169.85,-295.15 170.18,-288.16"/>
</g>
</g>
</svg>